<?xml version="1.0" encoding="UTF-8" standalone="no"?>
<!DOCTYPE svg PUBLIC "-//W3C//DTD SVG 1.0//EN" "http://www.w3.org/TR/2001/PR-SVG-20010719/DTD/svg10.dtd">
<svg width="59cm" height="36cm" viewBox="19 19 1172 712" xmlns="http://www.w3.org/2000/svg" xmlns:xlink="http://www.w3.org/1999/xlink">
  <defs/>
  <g id="Background">
    <rect style="fill: #ffffff; fill-opacity: 1; stroke-opacity: 1; stroke-width: 2; stroke: #000000" x="510" y="710" width="20" height="20" rx="0" ry="0"/>
    <rect style="fill: #b2df8a; fill-opacity: 1; stroke-opacity: 1; stroke-width: 2; stroke: #000000" x="1030" y="150" width="160" height="110" rx="0" ry="0"/>
    <rect style="fill: #b2df8a; fill-opacity: 1; stroke-opacity: 1; stroke-width: 2; stroke: #000000" x="1030" y="370" width="160" height="140" rx="0" ry="0"/>
    <rect style="fill: #b2df8a; fill-opacity: 1; stroke-opacity: 1; stroke-width: 2; stroke: #000000" x="1030" y="30" width="160" height="70" rx="0" ry="0"/>
    <rect style="fill: #b2df8a; fill-opacity: 1; stroke-opacity: 1; stroke-width: 2; stroke: #000000" x="770" y="370" width="160" height="90" rx="0" ry="0"/>
    <g>
      <rect style="fill: #e7f2fa; fill-opacity: 1; stroke-opacity: 1; stroke-width: 2; stroke: #000000" x="260" y="360" width="160" height="28"/>
      <text font-size="16" style="fill: #000000; fill-opacity: 1; stroke: none;text-anchor:middle;font-family:sans-serif;font-style:normal;font-weight:700" x="340" y="379">manuscripts</text>
      <rect style="fill: #e7f2fa; fill-opacity: 1; stroke-opacity: 1; stroke-width: 2; stroke: #000000" x="260" y="388" width="160" height="52"/>
      <text font-size="12.8" style="fill: #000000; fill-opacity: 1; stroke: none;text-anchor:start;font-family:monospace;font-style:normal;font-weight:normal" x="263" y="402">+ms_id: integer</text>
      <text font-size="12.8" style="fill: #000000; fill-opacity: 1; stroke: none;text-anchor:start;font-family:monospace;font-style:normal;font-weight:normal" x="263" y="418">+hsnr: integer</text>
      <text font-size="12.8" style="fill: #000000; fill-opacity: 1; stroke: none;text-anchor:start;font-family:monospace;font-style:normal;font-weight:normal" x="263" y="434">+hs: string</text>
      <rect style="fill: #e7f2fa; fill-opacity: 1; stroke-opacity: 1; stroke-width: 2; stroke: #000000" x="260" y="440" width="160" height="8"/>
    </g>
    <g>
      <rect style="fill: #e7f2fa; fill-opacity: 1; stroke-opacity: 1; stroke-width: 2; stroke: #000000" x="260" y="140" width="160" height="28"/>
      <text font-size="16" style="fill: #000000; fill-opacity: 1; stroke: none;text-anchor:middle;font-family:sans-serif;font-style:normal;font-weight:700" x="340" y="159">passages</text>
      <rect style="fill: #e7f2fa; fill-opacity: 1; stroke-opacity: 1; stroke-width: 2; stroke: #000000" x="260" y="168" width="160" height="52"/>
      <text font-size="12.8" style="fill: #000000; fill-opacity: 1; stroke: none;text-anchor:start;font-family:monospace;font-style:normal;font-weight:normal" x="263" y="182">+pass_id: integer</text>
      <text font-size="12.8" style="fill: #000000; fill-opacity: 1; stroke: none;text-anchor:start;font-family:monospace;font-style:normal;font-weight:normal" x="263" y="198">+bk_id</text>
      <text font-size="12.8" style="fill: #000000; fill-opacity: 1; stroke: none;text-anchor:start;font-family:monospace;font-style:normal;font-weight:normal" x="263" y="214">+passage: intrange</text>
      <rect style="fill: #e7f2fa; fill-opacity: 1; stroke-opacity: 1; stroke-width: 2; stroke: #000000" x="260" y="220" width="160" height="8"/>
    </g>
    <g>
      <rect style="fill: #e7f2fa; fill-opacity: 1; stroke-opacity: 1; stroke-width: 2; stroke: #000000" x="500" y="140" width="160" height="28"/>
      <text font-size="16" style="fill: #000000; fill-opacity: 1; stroke: none;text-anchor:middle;font-family:sans-serif;font-style:normal;font-weight:700" x="580" y="159">readings</text>
      <rect style="fill: #e7f2fa; fill-opacity: 1; stroke-opacity: 1; stroke-width: 2; stroke: #000000" x="500" y="168" width="160" height="52"/>
      <text font-size="12.8" style="fill: #000000; fill-opacity: 1; stroke: none;text-anchor:start;font-family:monospace;font-style:normal;font-weight:normal" x="503" y="182">+pass_id</text>
      <text font-size="12.8" style="fill: #000000; fill-opacity: 1; stroke: none;text-anchor:start;font-family:monospace;font-style:normal;font-weight:normal" x="503" y="198">+labez: string</text>
      <text font-size="12.8" style="fill: #000000; fill-opacity: 1; stroke: none;text-anchor:start;font-family:monospace;font-style:normal;font-weight:normal" x="503" y="214">+lesart: string</text>
      <rect style="fill: #e7f2fa; fill-opacity: 1; stroke-opacity: 1; stroke-width: 2; stroke: #000000" x="500" y="220" width="160" height="8"/>
    </g>
    <g>
      <rect style="fill: #e7f2fa; fill-opacity: 1; stroke-opacity: 1; stroke-width: 2; stroke: #000000" x="760" y="140" width="160" height="28"/>
      <text font-size="16" style="fill: #000000; fill-opacity: 1; stroke: none;text-anchor:middle;font-family:sans-serif;font-style:normal;font-weight:700" x="840" y="159">apparatus</text>
      <rect style="fill: #e7f2fa; fill-opacity: 1; stroke-opacity: 1; stroke-width: 2; stroke: #000000" x="760" y="168" width="160" height="132"/>
      <text font-size="12.8" style="fill: #000000; fill-opacity: 1; stroke: none;text-anchor:start;font-family:monospace;font-style:normal;font-weight:normal" x="763" y="182">+pass_id</text>
      <text font-size="12.8" style="fill: #000000; fill-opacity: 1; stroke: none;text-anchor:start;font-family:monospace;font-style:normal;font-weight:normal" x="763" y="198">+labez</text>
      <text font-size="12.8" style="fill: #000000; fill-opacity: 1; stroke: none;text-anchor:start;font-family:monospace;font-style:normal;font-weight:normal" x="763" y="214">+ms_id</text>
      <text font-size="12.8" style="fill: #000000; fill-opacity: 1; stroke: none;text-anchor:start;font-family:monospace;font-style:normal;font-weight:normal" x="763" y="230">+certainty: real</text>
      <text font-size="12.8" style="fill: #000000; fill-opacity: 1; stroke: none;text-anchor:start;font-family:monospace;font-style:normal;font-weight:normal" x="763" y="246">+cbgm: boolean</text>
      <text font-size="12.8" style="fill: #000000; fill-opacity: 1; stroke: none;text-anchor:start;font-family:monospace;font-style:normal;font-weight:normal" x="763" y="262">+variant: boolean</text>
      <text font-size="12.8" style="fill: #000000; fill-opacity: 1; stroke: none;text-anchor:start;font-family:monospace;font-style:normal;font-weight:normal" x="763" y="278">+labezsuf: string</text>
      <text font-size="12.8" style="fill: #000000; fill-opacity: 1; stroke: none;text-anchor:start;font-family:monospace;font-style:normal;font-weight:normal" x="763" y="294">+lesart: string</text>
      <rect style="fill: #e7f2fa; fill-opacity: 1; stroke-opacity: 1; stroke-width: 2; stroke: #000000" x="760" y="300" width="160" height="8"/>
    </g>
    <g>
      <rect style="fill: #b2df8a; fill-opacity: 1; stroke-opacity: 1; stroke-width: 2; stroke: #000000" x="760" y="360" width="160" height="28"/>
      <text font-size="16" style="fill: #000000; fill-opacity: 1; stroke: none;text-anchor:middle;font-family:sans-serif;font-style:normal;font-weight:700" x="840" y="379">cliques</text>
      <rect style="fill: #b2df8a; fill-opacity: 1; stroke-opacity: 1; stroke-width: 2; stroke: #000000" x="760" y="388" width="160" height="52"/>
      <text font-size="12.8" style="fill: #000000; fill-opacity: 1; stroke: none;text-anchor:start;font-family:sans-serif;font-style:normal;font-weight:normal" x="763" y="402">+pass_id</text>
      <text font-size="12.8" style="fill: #000000; fill-opacity: 1; stroke: none;text-anchor:start;font-family:sans-serif;font-style:normal;font-weight:normal" x="763" y="418">+labez</text>
      <text font-size="12.8" style="fill: #000000; fill-opacity: 1; stroke: none;text-anchor:start;font-family:sans-serif;font-style:normal;font-weight:normal" x="763" y="434">+clique: string</text>
      <rect style="fill: #b2df8a; fill-opacity: 1; stroke-opacity: 1; stroke-width: 2; stroke: #000000" x="760" y="440" width="160" height="8"/>
    </g>
    <g>
      <rect style="fill: #b2df8a; fill-opacity: 1; stroke-opacity: 1; stroke-width: 2; stroke: #000000" x="1020" y="360" width="160" height="28"/>
      <text font-size="16" style="fill: #000000; fill-opacity: 1; stroke: none;text-anchor:middle;font-family:sans-serif;font-style:normal;font-weight:700" x="1100" y="379">locstem</text>
      <rect style="fill: #b2df8a; fill-opacity: 1; stroke-opacity: 1; stroke-width: 2; stroke: #000000" x="1020" y="388" width="160" height="100"/>
      <text font-size="12.8" style="fill: #000000; fill-opacity: 1; stroke: none;text-anchor:start;font-family:sans-serif;font-style:normal;font-weight:normal" x="1023" y="402">+pass_id</text>
      <text font-size="12.8" style="fill: #000000; fill-opacity: 1; stroke: none;text-anchor:start;font-family:sans-serif;font-style:normal;font-weight:normal" x="1023" y="418">+labez</text>
      <text font-size="12.8" style="fill: #000000; fill-opacity: 1; stroke: none;text-anchor:start;font-family:sans-serif;font-style:normal;font-weight:normal" x="1023" y="434">+clique</text>
      <text font-size="12.8" style="fill: #000000; fill-opacity: 1; stroke: none;text-anchor:start;font-family:sans-serif;font-style:normal;font-weight:normal" x="1023" y="450">+source_labez</text>
      <text font-size="12.8" style="fill: #000000; fill-opacity: 1; stroke: none;text-anchor:start;font-family:sans-serif;font-style:normal;font-weight:normal" x="1023" y="466">+source_clique</text>
      <text font-size="12.8" style="fill: #000000; fill-opacity: 1; stroke: none;text-anchor:start;font-family:sans-serif;font-style:normal;font-weight:normal" x="1023" y="482">+original: boolean</text>
      <rect style="fill: #b2df8a; fill-opacity: 1; stroke-opacity: 1; stroke-width: 2; stroke: #000000" x="1020" y="488" width="160" height="8"/>
    </g>
    <g>
      <line style="fill: none; stroke-opacity: 1; stroke-width: 2; stroke: #000000" x1="1020" y1="398" x2="970" y2="398"/>
      <line style="fill: none; stroke-opacity: 1; stroke-width: 2; stroke: #000000" x1="970" y1="398" x2="970" y2="398"/>
      <line style="fill: none; stroke-opacity: 1; stroke-width: 2; stroke: #000000" x1="970" y1="398" x2="929.736" y2="398"/>
      <polygon style="fill: #000000; fill-opacity: 1; stroke-opacity: 1; stroke-width: 2; stroke: #000000" fill-rule="evenodd" points="922.236,398 932.236,393 929.736,398 932.236,403 "/>
    </g>
    <g>
      <polyline style="fill: none; stroke-opacity: 1; stroke-width: 2; stroke: #000000" points="500,178 460,178 460,178 429.736,178 "/>
      <polygon style="fill: #000000; fill-opacity: 1; stroke-opacity: 1; stroke-width: 2; stroke: #000000" fill-rule="evenodd" points="422.236,178 432.236,173 429.736,178 432.236,183 "/>
    </g>
    <g>
      <line style="fill: none; stroke-opacity: 1; stroke-width: 2; stroke: #000000" x1="760" y1="398" x2="747.071" y2="398"/>
      <path style="fill: none; stroke-opacity: 1; stroke-width: 2; stroke: #000000" d="M 747.071,398 A 7.07107,7.07107 0 0 1 740,390.929"/>
      <line style="fill: none; stroke-opacity: 1; stroke-width: 2; stroke: #000000" x1="740" y1="390.929" x2="740" y2="198"/>
      <path style="fill: none; stroke-opacity: 1; stroke-width: 2; stroke: #000000" d="M 740,198 A 20,20 0 0 0 720,178"/>
      <line style="fill: none; stroke-opacity: 1; stroke-width: 2; stroke: #000000" x1="720" y1="178" x2="669.736" y2="178"/>
      <polygon style="fill: #000000; fill-opacity: 1; stroke-opacity: 1; stroke-width: 2; stroke: #000000" fill-rule="evenodd" points="662.236,178 672.236,173 669.736,178 672.236,183 "/>
    </g>
    <g>
      <rect style="fill: #e7f2fa; fill-opacity: 1; stroke-opacity: 1; stroke-width: 2; stroke: #000000" x="20" y="140" width="160" height="28"/>
      <text font-size="16" style="fill: #000000; fill-opacity: 1; stroke: none;text-anchor:middle;font-family:sans-serif;font-style:normal;font-weight:700" x="100" y="159">books</text>
      <rect style="fill: #e7f2fa; fill-opacity: 1; stroke-opacity: 1; stroke-width: 2; stroke: #000000" x="20" y="168" width="160" height="68"/>
      <text font-size="12.8" style="fill: #000000; fill-opacity: 1; stroke: none;text-anchor:start;font-family:monospace;font-style:normal;font-weight:normal" x="23" y="182">+bk_id: integer</text>
      <text font-size="12.8" style="fill: #000000; fill-opacity: 1; stroke: none;text-anchor:start;font-family:monospace;font-style:normal;font-weight:normal" x="23" y="198">+siglum: string</text>
      <text font-size="12.8" style="fill: #000000; fill-opacity: 1; stroke: none;text-anchor:start;font-family:monospace;font-style:normal;font-weight:normal" x="23" y="214">+book: string</text>
      <text font-size="12.8" style="fill: #000000; fill-opacity: 1; stroke: none;text-anchor:start;font-family:monospace;font-style:normal;font-weight:normal" x="23" y="230">+passage: intrange</text>
      <rect style="fill: #e7f2fa; fill-opacity: 1; stroke-opacity: 1; stroke-width: 2; stroke: #000000" x="20" y="236" width="160" height="8"/>
    </g>
    <g>
      <rect style="fill: #fb9a99; fill-opacity: 1; stroke-opacity: 1; stroke-width: 2; stroke: #000000" x="760" y="540" width="160" height="28"/>
      <text font-size="16" style="fill: #000000; fill-opacity: 1; stroke: none;text-anchor:middle;font-family:sans-serif;font-style:normal;font-weight:700" x="840" y="559">ms_ranges</text>
      <rect style="fill: #fb9a99; fill-opacity: 1; stroke-opacity: 1; stroke-width: 2; stroke: #000000" x="760" y="568" width="160" height="52"/>
      <text font-size="12.8" style="fill: #000000; fill-opacity: 1; stroke: none;text-anchor:start;font-family:monospace;font-style:normal;font-weight:normal" x="763" y="582">+rg_id</text>
      <text font-size="12.8" style="fill: #000000; fill-opacity: 1; stroke: none;text-anchor:start;font-family:monospace;font-style:normal;font-weight:normal" x="763" y="598">+ms_id</text>
      <text font-size="12.8" style="fill: #000000; fill-opacity: 1; stroke: none;text-anchor:start;font-family:monospace;font-style:normal;font-weight:normal" x="763" y="614">+length: integer</text>
      <rect style="fill: #fb9a99; fill-opacity: 1; stroke-opacity: 1; stroke-width: 2; stroke: #000000" x="760" y="620" width="160" height="8"/>
    </g>
    <g>
      <rect style="fill: #fb9a99; fill-opacity: 1; stroke-opacity: 1; stroke-width: 2; stroke: #000000" x="1020" y="540" width="160" height="28"/>
      <text font-size="16" style="fill: #000000; fill-opacity: 1; stroke: none;text-anchor:middle;font-family:sans-serif;font-style:normal;font-weight:700" x="1100" y="559">affinity</text>
      <rect style="fill: #fb9a99; fill-opacity: 1; stroke-opacity: 1; stroke-width: 2; stroke: #000000" x="1020" y="568" width="160" height="148"/>
      <text font-size="12.8" style="fill: #000000; fill-opacity: 1; stroke: none;text-anchor:start;font-family:monospace;font-style:normal;font-weight:normal" x="1023" y="582">+rg_id</text>
      <text font-size="12.8" style="fill: #000000; fill-opacity: 1; stroke: none;text-anchor:start;font-family:monospace;font-style:normal;font-weight:normal" x="1023" y="598">+ms_id1</text>
      <text font-size="12.8" style="fill: #000000; fill-opacity: 1; stroke: none;text-anchor:start;font-family:monospace;font-style:normal;font-weight:normal" x="1023" y="614">+ms_id2</text>
      <text font-size="12.8" style="fill: #000000; fill-opacity: 1; stroke: none;text-anchor:start;font-family:monospace;font-style:normal;font-weight:normal" x="1023" y="630">+common: integer</text>
      <text font-size="12.8" style="fill: #000000; fill-opacity: 1; stroke: none;text-anchor:start;font-family:monospace;font-style:normal;font-weight:normal" x="1023" y="646">+equal: integer</text>
      <text font-size="12.8" style="fill: #000000; fill-opacity: 1; stroke: none;text-anchor:start;font-family:monospace;font-style:normal;font-weight:normal" x="1023" y="662">+older: integer</text>
      <text font-size="12.8" style="fill: #000000; fill-opacity: 1; stroke: none;text-anchor:start;font-family:monospace;font-style:normal;font-weight:normal" x="1023" y="678">+newer: integer</text>
      <text font-size="12.8" style="fill: #000000; fill-opacity: 1; stroke: none;text-anchor:start;font-family:monospace;font-style:normal;font-weight:normal" x="1023" y="694">+unclear: integer</text>
      <text font-size="12.8" style="fill: #000000; fill-opacity: 1; stroke: none;text-anchor:start;font-family:monospace;font-style:normal;font-weight:normal" x="1023" y="710">+affinity: real</text>
      <rect style="fill: #fb9a99; fill-opacity: 1; stroke-opacity: 1; stroke-width: 2; stroke: #000000" x="1020" y="716" width="160" height="8"/>
    </g>
    <g>
      <line style="fill: none; stroke-opacity: 1; stroke-width: 2; stroke: #000000" x1="760" y1="594" x2="700" y2="594"/>
      <path style="fill: none; stroke-opacity: 1; stroke-width: 2; stroke: #000000" d="M 700,594 A 20,20 0 0 1 680,574"/>
      <line style="fill: none; stroke-opacity: 1; stroke-width: 2; stroke: #000000" x1="680" y1="574" x2="680" y2="418"/>
      <path style="fill: none; stroke-opacity: 1; stroke-width: 2; stroke: #000000" d="M 680,418 A 20,20 0 0 0 660,398"/>
      <line style="fill: none; stroke-opacity: 1; stroke-width: 2; stroke: #000000" x1="660" y1="398" x2="429.736" y2="398"/>
      <polygon style="fill: #000000; fill-opacity: 1; stroke-opacity: 1; stroke-width: 2; stroke: #000000" fill-rule="evenodd" points="422.236,398 432.236,393 429.736,398 432.236,403 "/>
    </g>
    <g>
      <polyline style="fill: none; stroke-opacity: 1; stroke-width: 2; stroke: #000000" points="1020,578 970,578 970,578 929.736,578 "/>
      <polygon style="fill: #000000; fill-opacity: 1; stroke-opacity: 1; stroke-width: 2; stroke: #000000" fill-rule="evenodd" points="922.236,578 932.236,573 929.736,578 932.236,583 "/>
    </g>
    <g>
      <rect style="fill: #e7f2fa; fill-opacity: 1; stroke-opacity: 1; stroke-width: 2; stroke: #000000" x="260" y="540" width="160" height="28"/>
      <text font-size="16" style="fill: #000000; fill-opacity: 1; stroke: none;text-anchor:middle;font-family:sans-serif;font-style:normal;font-weight:700" x="340" y="559">ranges</text>
      <rect style="fill: #e7f2fa; fill-opacity: 1; stroke-opacity: 1; stroke-width: 2; stroke: #000000" x="260" y="568" width="160" height="68"/>
      <text font-size="12.8" style="fill: #000000; fill-opacity: 1; stroke: none;text-anchor:start;font-family:monospace;font-style:normal;font-weight:normal" x="263" y="582">+rg_id: integer</text>
      <text font-size="12.8" style="fill: #000000; fill-opacity: 1; stroke: none;text-anchor:start;font-family:monospace;font-style:normal;font-weight:normal" x="263" y="598">+bk_id</text>
      <text font-size="12.8" style="fill: #000000; fill-opacity: 1; stroke: none;text-anchor:start;font-family:monospace;font-style:normal;font-weight:normal" x="263" y="614">+range: string</text>
      <text font-size="12.8" style="fill: #000000; fill-opacity: 1; stroke: none;text-anchor:start;font-family:monospace;font-style:normal;font-weight:normal" x="263" y="630">+passage: intrange</text>
      <rect style="fill: #e7f2fa; fill-opacity: 1; stroke-opacity: 1; stroke-width: 2; stroke: #000000" x="260" y="636" width="160" height="8"/>
    </g>
    <g>
      <line style="fill: none; stroke-opacity: 1; stroke-width: 2; stroke: #000000" x1="760" y1="578" x2="590" y2="578"/>
      <line style="fill: none; stroke-opacity: 1; stroke-width: 2; stroke: #000000" x1="590" y1="578" x2="590" y2="578"/>
      <line style="fill: none; stroke-opacity: 1; stroke-width: 2; stroke: #000000" x1="590" y1="578" x2="429.736" y2="578"/>
      <polygon style="fill: #000000; fill-opacity: 1; stroke-opacity: 1; stroke-width: 2; stroke: #000000" fill-rule="evenodd" points="422.236,578 432.236,573 429.736,578 432.236,583 "/>
    </g>
    <g>
      <line style="fill: none; stroke-opacity: 1; stroke-width: 2; stroke: #000000" x1="260" y1="594" x2="234.142" y2="594"/>
      <path style="fill: none; stroke-opacity: 1; stroke-width: 2; stroke: #000000" d="M 234.142,594 A 14.1421,14.1421 0 0 1 220,579.858"/>
      <line style="fill: none; stroke-opacity: 1; stroke-width: 2; stroke: #000000" x1="220" y1="579.858" x2="220" y2="188.7"/>
      <path style="fill: none; stroke-opacity: 1; stroke-width: 2; stroke: #000000" d="M 220,188.7 A 10.6999,10.6999 0 0 0 209.3,178"/>
      <line style="fill: none; stroke-opacity: 1; stroke-width: 2; stroke: #000000" x1="209.3" y1="178" x2="189.736" y2="178"/>
      <polygon style="fill: #000000; fill-opacity: 1; stroke-opacity: 1; stroke-width: 2; stroke: #000000" fill-rule="evenodd" points="182.236,178 192.236,173 189.736,178 192.236,183 "/>
    </g>
    <g>
      <line style="fill: none; stroke-opacity: 1; stroke-width: 2; stroke: #000000" x1="760" y1="414" x2="734.142" y2="414"/>
      <path style="fill: none; stroke-opacity: 1; stroke-width: 2; stroke: #000000" d="M 734.142,414 A 14.1421,14.1421 0 0 1 720,399.858"/>
      <line style="fill: none; stroke-opacity: 1; stroke-width: 2; stroke: #000000" x1="720" y1="399.858" x2="720" y2="211.771"/>
      <path style="fill: none; stroke-opacity: 1; stroke-width: 2; stroke: #000000" d="M 720,211.771 A 17.771,17.771 0 0 0 702.229,194"/>
      <line style="fill: none; stroke-opacity: 1; stroke-width: 2; stroke: #000000" x1="702.229" y1="194" x2="669.736" y2="194"/>
      <polygon style="fill: #000000; fill-opacity: 1; stroke-opacity: 1; stroke-width: 2; stroke: #000000" fill-rule="evenodd" points="662.236,194 672.236,189 669.736,194 672.236,199 "/>
    </g>
    <g>
      <line style="fill: none; stroke-opacity: 1; stroke-width: 2; stroke: #000000" x1="1020" y1="414" x2="970" y2="414"/>
      <line style="fill: none; stroke-opacity: 1; stroke-width: 2; stroke: #000000" x1="970" y1="414" x2="970" y2="414"/>
      <line style="fill: none; stroke-opacity: 1; stroke-width: 2; stroke: #000000" x1="970" y1="414" x2="929.736" y2="414"/>
      <polygon style="fill: #000000; fill-opacity: 1; stroke-opacity: 1; stroke-width: 2; stroke: #000000" fill-rule="evenodd" points="922.236,414 932.236,409 929.736,414 932.236,419 "/>
    </g>
    <g>
      <line style="fill: none; stroke-opacity: 1; stroke-width: 2; stroke: #000000" x1="1020" y1="430" x2="970" y2="430"/>
      <line style="fill: none; stroke-opacity: 1; stroke-width: 2; stroke: #000000" x1="970" y1="430" x2="970" y2="430"/>
      <line style="fill: none; stroke-opacity: 1; stroke-width: 2; stroke: #000000" x1="970" y1="430" x2="929.736" y2="430"/>
      <polygon style="fill: #000000; fill-opacity: 1; stroke-opacity: 1; stroke-width: 2; stroke: #000000" fill-rule="evenodd" points="922.236,430 932.236,425 929.736,430 932.236,435 "/>
    </g>
    <g>
      <line style="fill: none; stroke-opacity: 1; stroke-width: 2; stroke: #000000" x1="760" y1="210" x2="700" y2="210"/>
      <path style="fill: none; stroke-opacity: 1; stroke-width: 2; stroke: #000000" d="M 700,210 A 20,20 0 0 0 680,230"/>
      <line style="fill: none; stroke-opacity: 1; stroke-width: 2; stroke: #000000" x1="680" y1="230" x2="680" y2="378"/>
      <path style="fill: none; stroke-opacity: 1; stroke-width: 2; stroke: #000000" d="M 680,378 A 20,20 0 0 1 660,398"/>
      <line style="fill: none; stroke-opacity: 1; stroke-width: 2; stroke: #000000" x1="660" y1="398" x2="429.736" y2="398"/>
      <polygon style="fill: #000000; fill-opacity: 1; stroke-opacity: 1; stroke-width: 2; stroke: #000000" fill-rule="evenodd" points="422.236,398 432.236,393 429.736,398 432.236,403 "/>
    </g>
    <g>
      <line style="fill: none; stroke-opacity: 1; stroke-width: 2; stroke: #000000" x1="760" y1="178" x2="700" y2="178"/>
      <line style="fill: none; stroke-opacity: 1; stroke-width: 2; stroke: #000000" x1="700" y1="178" x2="700" y2="178"/>
      <line style="fill: none; stroke-opacity: 1; stroke-width: 2; stroke: #000000" x1="700" y1="178" x2="669.736" y2="178"/>
      <polygon style="fill: #000000; fill-opacity: 1; stroke-opacity: 1; stroke-width: 2; stroke: #000000" fill-rule="evenodd" points="662.236,178 672.236,173 669.736,178 672.236,183 "/>
    </g>
    <g>
      <line style="fill: none; stroke-opacity: 1; stroke-width: 2; stroke: #000000" x1="760" y1="194" x2="680" y2="194"/>
      <line style="fill: none; stroke-opacity: 1; stroke-width: 2; stroke: #000000" x1="680" y1="194" x2="680" y2="194"/>
      <line style="fill: none; stroke-opacity: 1; stroke-width: 2; stroke: #000000" x1="680" y1="194" x2="669.736" y2="194"/>
      <polygon style="fill: #000000; fill-opacity: 1; stroke-opacity: 1; stroke-width: 2; stroke: #000000" fill-rule="evenodd" points="662.236,194 672.236,189 669.736,194 672.236,199 "/>
    </g>
    <g>
      <polyline style="fill: none; stroke-opacity: 1; stroke-width: 2; stroke: #000000" points="1020,594 970,594 970,594 929.736,594 "/>
      <polygon style="fill: #000000; fill-opacity: 1; stroke-opacity: 1; stroke-width: 2; stroke: #000000" fill-rule="evenodd" points="922.236,594 932.236,589 929.736,594 932.236,599 "/>
    </g>
    <g>
      <line style="fill: none; stroke-opacity: 1; stroke-width: 2; stroke: #000000" x1="1020" y1="610" x2="975.657" y2="610"/>
      <path style="fill: none; stroke-opacity: 1; stroke-width: 2; stroke: #000000" d="M 975.657,610 A 5.65685,5.65685 0 0 1 970,604.343"/>
      <line style="fill: none; stroke-opacity: 1; stroke-width: 2; stroke: #000000" x1="970" y1="604.343" x2="970" y2="597.657"/>
      <path style="fill: none; stroke-opacity: 1; stroke-width: 2; stroke: #000000" d="M 970,597.657 A 3.65685,3.65685 0 0 0 966.343,594"/>
      <line style="fill: none; stroke-opacity: 1; stroke-width: 2; stroke: #000000" x1="966.343" y1="594" x2="929.736" y2="594"/>
      <polygon style="fill: #000000; fill-opacity: 1; stroke-opacity: 1; stroke-width: 2; stroke: #000000" fill-rule="evenodd" points="922.236,594 932.236,589 929.736,594 932.236,599 "/>
    </g>
    <g>
      <line style="fill: none; stroke-opacity: 1; stroke-width: 2; stroke: #000000" x1="260" y1="194" x2="245.657" y2="194"/>
      <path style="fill: none; stroke-opacity: 1; stroke-width: 2; stroke: #000000" d="M 245.657,194 A 5.65685,5.65685 0 0 1 240,188.343"/>
      <line style="fill: none; stroke-opacity: 1; stroke-width: 2; stroke: #000000" x1="240" y1="188.343" x2="240" y2="181.657"/>
      <path style="fill: none; stroke-opacity: 1; stroke-width: 2; stroke: #000000" d="M 240,181.657 A 3.65685,3.65685 0 0 0 236.343,178"/>
      <line style="fill: none; stroke-opacity: 1; stroke-width: 2; stroke: #000000" x1="236.343" y1="178" x2="189.736" y2="178"/>
      <polygon style="fill: #000000; fill-opacity: 1; stroke-opacity: 1; stroke-width: 2; stroke: #000000" fill-rule="evenodd" points="182.236,178 192.236,173 189.736,178 192.236,183 "/>
    </g>
    <g>
      <line style="fill: none; stroke-opacity: 1; stroke-width: 2; stroke: #000000" x1="1020" y1="446" x2="971.314" y2="446"/>
      <path style="fill: none; stroke-opacity: 1; stroke-width: 2; stroke: #000000" d="M 971.314,446 A 11.3137,11.3137 0 0 1 960,434.686"/>
      <line style="fill: none; stroke-opacity: 1; stroke-width: 2; stroke: #000000" x1="960" y1="434.686" x2="960" y2="421.314"/>
      <path style="fill: none; stroke-opacity: 1; stroke-width: 2; stroke: #000000" d="M 960,421.314 A 7.31371,7.31371 0 0 0 952.686,414"/>
      <line style="fill: none; stroke-opacity: 1; stroke-width: 2; stroke: #000000" x1="952.686" y1="414" x2="929.736" y2="414"/>
      <polygon style="fill: #000000; fill-opacity: 1; stroke-opacity: 1; stroke-width: 2; stroke: #000000" fill-rule="evenodd" points="922.236,414 932.236,409 929.736,414 932.236,419 "/>
    </g>
    <g>
      <line style="fill: none; stroke-opacity: 1; stroke-width: 2; stroke: #000000" x1="1020" y1="462" x2="961.314" y2="462"/>
      <path style="fill: none; stroke-opacity: 1; stroke-width: 2; stroke: #000000" d="M 961.314,462 A 11.3137,11.3137 0 0 1 950,450.686"/>
      <line style="fill: none; stroke-opacity: 1; stroke-width: 2; stroke: #000000" x1="950" y1="450.686" x2="950" y2="437.164"/>
      <path style="fill: none; stroke-opacity: 1; stroke-width: 2; stroke: #000000" d="M 950,437.164 A 7.16438,7.16438 0 0 0 942.836,430"/>
      <line style="fill: none; stroke-opacity: 1; stroke-width: 2; stroke: #000000" x1="942.836" y1="430" x2="929.736" y2="430"/>
      <polygon style="fill: #000000; fill-opacity: 1; stroke-opacity: 1; stroke-width: 2; stroke: #000000" fill-rule="evenodd" points="922.236,430 932.236,425 929.736,430 932.236,435 "/>
    </g>
    <g>
      <rect style="fill: #b2df8a; fill-opacity: 1; stroke-opacity: 1; stroke-width: 2; stroke: #000000" x="1020" y="140" width="160" height="28"/>
      <text font-size="16" style="fill: #000000; fill-opacity: 1; stroke: none;text-anchor:middle;font-family:sans-serif;font-style:normal;font-weight:700" x="1100" y="159">ms_cliques</text>
      <rect style="fill: #b2df8a; fill-opacity: 1; stroke-opacity: 1; stroke-width: 2; stroke: #000000" x="1020" y="168" width="160" height="68"/>
      <text font-size="12.8" style="fill: #000000; fill-opacity: 1; stroke: none;text-anchor:start;font-family:monospace;font-style:normal;font-weight:normal" x="1023" y="182">+pass_id</text>
      <text font-size="12.8" style="fill: #000000; fill-opacity: 1; stroke: none;text-anchor:start;font-family:monospace;font-style:normal;font-weight:normal" x="1023" y="198">+labez</text>
      <text font-size="12.8" style="fill: #000000; fill-opacity: 1; stroke: none;text-anchor:start;font-family:monospace;font-style:normal;font-weight:normal" x="1023" y="214">+ms_id</text>
      <text font-size="12.8" style="fill: #000000; fill-opacity: 1; stroke: none;text-anchor:start;font-family:monospace;font-style:normal;font-weight:normal" x="1023" y="230">+clique</text>
      <rect style="fill: #b2df8a; fill-opacity: 1; stroke-opacity: 1; stroke-width: 2; stroke: #000000" x="1020" y="236" width="160" height="8"/>
    </g>
    <g>
      <line style="fill: none; stroke-opacity: 1; stroke-width: 2; stroke: #000000" x1="1020" y1="178" x2="980" y2="178"/>
      <path style="fill: none; stroke-opacity: 1; stroke-width: 2; stroke: #000000" d="M 980,178 A 20,20 0 0 0 960,198"/>
      <line style="fill: none; stroke-opacity: 1; stroke-width: 2; stroke: #000000" x1="960" y1="198" x2="960" y2="387.3"/>
      <path style="fill: none; stroke-opacity: 1; stroke-width: 2; stroke: #000000" d="M 960,387.3 A 10.6999,10.6999 0 0 1 949.3,398"/>
      <line style="fill: none; stroke-opacity: 1; stroke-width: 2; stroke: #000000" x1="949.3" y1="398" x2="929.736" y2="398"/>
      <polygon style="fill: #000000; fill-opacity: 1; stroke-opacity: 1; stroke-width: 2; stroke: #000000" fill-rule="evenodd" points="922.236,398 932.236,393 929.736,398 932.236,403 "/>
    </g>
    <g>
      <line style="fill: none; stroke-opacity: 1; stroke-width: 2; stroke: #000000" x1="1020" y1="194" x2="994.142" y2="194"/>
      <path style="fill: none; stroke-opacity: 1; stroke-width: 2; stroke: #000000" d="M 994.142,194 A 14.1421,14.1421 0 0 0 980,208.142"/>
      <line style="fill: none; stroke-opacity: 1; stroke-width: 2; stroke: #000000" x1="980" y1="208.142" x2="980" y2="396.229"/>
      <path style="fill: none; stroke-opacity: 1; stroke-width: 2; stroke: #000000" d="M 980,396.229 A 17.771,17.771 0 0 1 962.229,414"/>
      <line style="fill: none; stroke-opacity: 1; stroke-width: 2; stroke: #000000" x1="962.229" y1="414" x2="929.736" y2="414"/>
      <polygon style="fill: #000000; fill-opacity: 1; stroke-opacity: 1; stroke-width: 2; stroke: #000000" fill-rule="evenodd" points="922.236,414 932.236,409 929.736,414 932.236,419 "/>
    </g>
    <g>
      <line style="fill: none; stroke-opacity: 1; stroke-width: 2; stroke: #000000" x1="1020" y1="226" x2="1007.07" y2="226"/>
      <path style="fill: none; stroke-opacity: 1; stroke-width: 2; stroke: #000000" d="M 1007.07,226 A 7.07107,7.07107 0 0 0 1000,233.071"/>
      <line style="fill: none; stroke-opacity: 1; stroke-width: 2; stroke: #000000" x1="1000" y1="233.071" x2="1000" y2="410"/>
      <path style="fill: none; stroke-opacity: 1; stroke-width: 2; stroke: #000000" d="M 1000,410 A 20,20 0 0 1 980,430"/>
      <line style="fill: none; stroke-opacity: 1; stroke-width: 2; stroke: #000000" x1="980" y1="430" x2="929.736" y2="430"/>
      <polygon style="fill: #000000; fill-opacity: 1; stroke-opacity: 1; stroke-width: 2; stroke: #000000" fill-rule="evenodd" points="922.236,430 932.236,425 929.736,430 932.236,435 "/>
    </g>
    <rect style="fill: #b2df8a; fill-opacity: 1; stroke-opacity: 1; stroke-width: 2; stroke: #000000" x="150" y="700" width="20" height="20" rx="0" ry="0"/>
    <text font-size="12.8" style="fill: #000000; fill-opacity: 1; stroke: none;text-anchor:start;font-family:sans-serif;font-style:normal;font-weight:normal" x="180" y="714.425">
      <tspan x="180" y="714.425">Editor Input =</tspan>
    </text>
    <rect style="fill: #fb9a99; fill-opacity: 1; stroke-opacity: 1; stroke-width: 2; stroke: #000000" x="290" y="700" width="20" height="20" rx="0" ry="0"/>
    <text font-size="12.8" style="fill: #000000; fill-opacity: 1; stroke: none;text-anchor:start;font-family:sans-serif;font-style:normal;font-weight:normal" x="320" y="714.425">
      <tspan x="320" y="714.425">CBGM Output</tspan>
    </text>
    <g>
      <polyline style="fill: none; stroke-opacity: 1; stroke-width: 2; stroke: #000000" points="1020,178 970,178 970,178 929.736,178 "/>
      <polygon style="fill: #000000; fill-opacity: 1; stroke-opacity: 1; stroke-width: 2; stroke: #000000" fill-rule="evenodd" points="922.236,178 932.236,173 929.736,178 932.236,183 "/>
    </g>
    <g>
      <polyline style="fill: none; stroke-opacity: 1; stroke-width: 2; stroke: #000000" points="1020,194 970,194 970,194 929.736,194 "/>
      <polygon style="fill: #000000; fill-opacity: 1; stroke-opacity: 1; stroke-width: 2; stroke: #000000" fill-rule="evenodd" points="922.236,194 932.236,189 929.736,194 932.236,199 "/>
    </g>
    <g>
      <polyline style="fill: none; stroke-opacity: 1; stroke-width: 2; stroke: #000000" points="1020,210 970,210 970,210 929.736,210 "/>
      <polygon style="fill: #000000; fill-opacity: 1; stroke-opacity: 1; stroke-width: 2; stroke: #000000" fill-rule="evenodd" points="922.236,210 932.236,205 929.736,210 932.236,215 "/>
    </g>
    <g>
      <rect style="fill: #b2df8a; fill-opacity: 1; stroke-opacity: 1; stroke-width: 2; stroke: #000000" x="1020" y="20" width="160" height="28"/>
      <text font-size="16" style="fill: #000000; fill-opacity: 1; stroke: none;text-anchor:middle;font-family:sans-serif;font-style:normal;font-weight:700" x="1100" y="39">notes</text>
      <rect style="fill: #b2df8a; fill-opacity: 1; stroke-opacity: 1; stroke-width: 2; stroke: #000000" x="1020" y="48" width="160" height="36"/>
      <text font-size="12.8" style="fill: #000000; fill-opacity: 1; stroke: none;text-anchor:start;font-family:monospace;font-style:normal;font-weight:normal" x="1023" y="62">+pass_id</text>
      <text font-size="12.8" style="fill: #000000; fill-opacity: 1; stroke: none;text-anchor:start;font-family:monospace;font-style:normal;font-weight:normal" x="1023" y="78">+note: string</text>
      <rect style="fill: #b2df8a; fill-opacity: 1; stroke-opacity: 1; stroke-width: 2; stroke: #000000" x="1020" y="84" width="160" height="8"/>
    </g>
    <g>
      <line style="fill: none; stroke-opacity: 1; stroke-width: 2; stroke: #000000" x1="1020" y1="58" x2="480" y2="58"/>
      <path style="fill: none; stroke-opacity: 1; stroke-width: 2; stroke: #000000" d="M 480,58 A 20,20 0 0 0 460,78"/>
      <line style="fill: none; stroke-opacity: 1; stroke-width: 2; stroke: #000000" x1="460" y1="78" x2="460" y2="167.3"/>
      <path style="fill: none; stroke-opacity: 1; stroke-width: 2; stroke: #000000" d="M 460,167.3 A 10.6999,10.6999 0 0 1 449.3,178"/>
      <line style="fill: none; stroke-opacity: 1; stroke-width: 2; stroke: #000000" x1="449.3" y1="178" x2="429.736" y2="178"/>
      <polygon style="fill: #000000; fill-opacity: 1; stroke-opacity: 1; stroke-width: 2; stroke: #000000" fill-rule="evenodd" points="422.236,178 432.236,173 429.736,178 432.236,183 "/>
    </g>
    <rect style="fill: #e7f2fa; fill-opacity: 1; stroke-opacity: 1; stroke-width: 2; stroke: #000000" x="20" y="700" width="20" height="20" rx="0" ry="0"/>
    <text font-size="12.8" style="fill: #000000; fill-opacity: 1; stroke: none;text-anchor:start;font-family:sans-serif;font-style:normal;font-weight:normal" x="50" y="714.425">
      <tspan x="50" y="714.425">Apparatus +</tspan>
    </text>
    <rect style="fill: #ffffff; fill-opacity: 1; stroke-opacity: 1; stroke-width: 2; stroke: #000000" x="500" y="700" width="20" height="20" rx="0" ry="0"/>
    <text font-size="12.8" style="fill: #000000; fill-opacity: 1; stroke: none;text-anchor:start;font-family:sans-serif;font-style:normal;font-weight:normal" x="540" y="714.425">
      <tspan x="540" y="714.425">Journalled Table</tspan>
    </text>
  </g>
</svg>
