<?xml version="1.0" encoding="UTF-8" standalone="no"?>
<!DOCTYPE svg PUBLIC "-//W3C//DTD SVG 1.0//EN" "http://www.w3.org/TR/2001/PR-SVG-20010719/DTD/svg10.dtd">
<svg width="59cm" height="33cm" viewBox="19 39 1162 646" xmlns="http://www.w3.org/2000/svg" xmlns:xlink="http://www.w3.org/1999/xlink">
  <g id="Background">
    <g>
      <rect style="fill: #ffffff; fill-opacity: 1; stroke-opacity: 1; stroke-width: 2; stroke: #000000" x="260" y="280" width="160" height="28"/>
      <text font-size="16" style="fill: #000000; fill-opacity: 1; stroke: none;text-anchor:middle;font-family:sans-serif;font-style:normal;font-weight:700" x="340" y="299">manuscripts</text>
      <rect style="fill: #ffffff; fill-opacity: 1; stroke-opacity: 1; stroke-width: 2; stroke: #000000" x="260" y="308" width="160" height="52"/>
      <text font-size="12.8" style="fill: #000000; fill-opacity: 1; stroke: none;text-anchor:start;font-family:monospace;font-style:normal;font-weight:normal" x="263" y="322">+ms_id: integer</text>
      <text font-size="12.8" style="fill: #000000; fill-opacity: 1; stroke: none;text-anchor:start;font-family:monospace;font-style:normal;font-weight:normal" x="263" y="338">+hsnr: integer</text>
      <text font-size="12.8" style="fill: #000000; fill-opacity: 1; stroke: none;text-anchor:start;font-family:monospace;font-style:normal;font-weight:normal" x="263" y="354">+hs: string</text>
      <rect style="fill: #ffffff; fill-opacity: 1; stroke-opacity: 1; stroke-width: 2; stroke: #000000" x="260" y="360" width="160" height="8"/>
    </g>
    <g>
      <rect style="fill: #ffffff; fill-opacity: 1; stroke-opacity: 1; stroke-width: 2; stroke: #000000" x="260" y="40" width="160" height="28"/>
      <text font-size="16" style="fill: #000000; fill-opacity: 1; stroke: none;text-anchor:middle;font-family:sans-serif;font-style:normal;font-weight:700" x="340" y="59">passages</text>
      <rect style="fill: #ffffff; fill-opacity: 1; stroke-opacity: 1; stroke-width: 2; stroke: #000000" x="260" y="68" width="160" height="148"/>
      <text font-size="12.8" style="fill: #000000; fill-opacity: 1; stroke: none;text-anchor:start;font-family:monospace;font-style:normal;font-weight:normal" x="263" y="82">+pass_id</text>
      <text font-size="12.8" style="fill: #000000; fill-opacity: 1; stroke: none;text-anchor:start;font-family:monospace;font-style:normal;font-weight:normal" x="263" y="98">+bk_id</text>
      <text font-size="12.8" style="fill: #000000; fill-opacity: 1; stroke: none;text-anchor:start;font-family:monospace;font-style:normal;font-weight:normal" x="263" y="114">+irange</text>
      <text font-size="12.8" style="fill: #000000; fill-opacity: 1; stroke: none;text-anchor:start;font-family:monospace;font-style:normal;font-weight:normal" x="263" y="130">+anfadr</text>
      <text font-size="12.8" style="fill: #000000; fill-opacity: 1; stroke: none;text-anchor:start;font-family:monospace;font-style:normal;font-weight:normal" x="263" y="146">+endadr</text>
      <text font-size="12.8" style="fill: #000000; fill-opacity: 1; stroke: none;text-anchor:start;font-family:monospace;font-style:normal;font-weight:normal" x="263" y="162">+lemma</text>
      <text font-size="12.8" style="fill: #000000; fill-opacity: 1; stroke: none;text-anchor:start;font-family:monospace;font-style:normal;font-weight:normal" x="263" y="178">+spanning</text>
      <text font-size="12.8" style="fill: #000000; fill-opacity: 1; stroke: none;text-anchor:start;font-family:monospace;font-style:normal;font-weight:normal" x="263" y="194">+spanned</text>
      <text font-size="12.8" style="fill: #000000; fill-opacity: 1; stroke: none;text-anchor:start;font-family:monospace;font-style:normal;font-weight:normal" x="263" y="210">+fehlvers</text>
      <rect style="fill: #ffffff; fill-opacity: 1; stroke-opacity: 1; stroke-width: 2; stroke: #000000" x="260" y="216" width="160" height="8"/>
    </g>
    <g>
      <rect style="fill: #ffffff; fill-opacity: 1; stroke-opacity: 1; stroke-width: 2; stroke: #000000" x="480" y="40" width="160" height="28"/>
      <text font-size="16" style="fill: #000000; fill-opacity: 1; stroke: none;text-anchor:middle;font-family:sans-serif;font-style:normal;font-weight:700" x="560" y="59">readings</text>
      <rect style="fill: #ffffff; fill-opacity: 1; stroke-opacity: 1; stroke-width: 2; stroke: #000000" x="480" y="68" width="160" height="52"/>
      <text font-size="12.8" style="fill: #000000; fill-opacity: 1; stroke: none;text-anchor:start;font-family:monospace;font-style:normal;font-weight:normal" x="483" y="82">+pass_id</text>
      <text font-size="12.8" style="fill: #000000; fill-opacity: 1; stroke: none;text-anchor:start;font-family:monospace;font-style:normal;font-weight:normal" x="483" y="98">+labez</text>
      <text font-size="12.8" style="fill: #000000; fill-opacity: 1; stroke: none;text-anchor:start;font-family:monospace;font-style:normal;font-weight:normal" x="483" y="114">+lesart</text>
      <rect style="fill: #ffffff; fill-opacity: 1; stroke-opacity: 1; stroke-width: 2; stroke: #000000" x="480" y="120" width="160" height="8"/>
    </g>
    <g>
      <rect style="fill: #ffffff; fill-opacity: 1; stroke-opacity: 1; stroke-width: 2; stroke: #000000" x="1020" y="280" width="160" height="28"/>
      <text font-size="16" style="fill: #000000; fill-opacity: 1; stroke: none;text-anchor:middle;font-family:sans-serif;font-style:normal;font-weight:700" x="1100" y="299">apparatus</text>
      <rect style="fill: #ffffff; fill-opacity: 1; stroke-opacity: 1; stroke-width: 2; stroke: #000000" x="1020" y="308" width="160" height="132"/>
      <text font-size="12.8" style="fill: #000000; fill-opacity: 1; stroke: none;text-anchor:start;font-family:monospace;font-style:normal;font-weight:normal" x="1023" y="322">+ms_id: integer</text>
      <text font-size="12.8" style="fill: #000000; fill-opacity: 1; stroke: none;text-anchor:start;font-family:monospace;font-style:normal;font-weight:normal" x="1023" y="338">+pass_id: integer</text>
      <text font-size="12.8" style="fill: #000000; fill-opacity: 1; stroke: none;text-anchor:start;font-family:monospace;font-style:normal;font-weight:normal" x="1023" y="354">+labez: string</text>
      <text font-size="12.8" style="fill: #000000; fill-opacity: 1; stroke: none;text-anchor:start;font-family:monospace;font-style:normal;font-weight:normal" x="1023" y="370">+clique: string</text>
      <text font-size="12.8" style="fill: #000000; fill-opacity: 1; stroke: none;text-anchor:start;font-family:monospace;font-style:normal;font-weight:normal" x="1023" y="386">+cbgm: boolean</text>
      <text font-size="12.8" style="fill: #000000; fill-opacity: 1; stroke: none;text-anchor:start;font-family:monospace;font-style:normal;font-weight:normal" x="1023" y="402">+labezsuf: string</text>
      <text font-size="12.8" style="fill: #000000; fill-opacity: 1; stroke: none;text-anchor:start;font-family:monospace;font-style:normal;font-weight:normal" x="1023" y="418">+lesart: string</text>
      <text font-size="12.8" style="fill: #000000; fill-opacity: 1; stroke: none;text-anchor:start;font-family:monospace;font-style:normal;font-weight:normal" x="1023" y="434">+certainty: real</text>
      <rect style="fill: #ffffff; fill-opacity: 1; stroke-opacity: 1; stroke-width: 2; stroke: #000000" x="1020" y="440" width="160" height="8"/>
    </g>
    <g>
      <rect style="fill: #ffffff; fill-opacity: 1; stroke-opacity: 1; stroke-width: 2; stroke: #000000" x="700" y="40" width="160" height="28"/>
      <text font-size="16" style="fill: #000000; fill-opacity: 1; stroke: none;text-anchor:middle;font-family:sans-serif;font-style:normal;font-weight:700" x="780" y="59">cliques</text>
      <rect style="fill: #ffffff; fill-opacity: 1; stroke-opacity: 1; stroke-width: 2; stroke: #000000" x="700" y="68" width="160" height="52"/>
      <text font-size="12.8" style="fill: #000000; fill-opacity: 1; stroke: none;text-anchor:start;font-family:monospace;font-style:normal;font-weight:normal" x="703" y="82">+pass_id</text>
      <text font-size="12.8" style="fill: #000000; fill-opacity: 1; stroke: none;text-anchor:start;font-family:monospace;font-style:normal;font-weight:normal" x="703" y="98">+labez</text>
      <text font-size="12.8" style="fill: #000000; fill-opacity: 1; stroke: none;text-anchor:start;font-family:monospace;font-style:normal;font-weight:normal" x="703" y="114">+clique</text>
      <rect style="fill: #ffffff; fill-opacity: 1; stroke-opacity: 1; stroke-width: 2; stroke: #000000" x="700" y="120" width="160" height="8"/>
    </g>
    <g>
      <rect style="fill: #ffffff; fill-opacity: 1; stroke-opacity: 1; stroke-width: 2; stroke: #000000" x="1020" y="40" width="160" height="28"/>
      <text font-size="16" style="fill: #000000; fill-opacity: 1; stroke: none;text-anchor:middle;font-family:sans-serif;font-style:normal;font-weight:700" x="1100" y="59">locstem</text>
      <rect style="fill: #ffffff; fill-opacity: 1; stroke-opacity: 1; stroke-width: 2; stroke: #000000" x="1020" y="68" width="160" height="100"/>
      <text font-size="12.8" style="fill: #000000; fill-opacity: 1; stroke: none;text-anchor:start;font-family:monospace;font-style:normal;font-weight:normal" x="1023" y="82">+pass_id</text>
      <text font-size="12.8" style="fill: #000000; fill-opacity: 1; stroke: none;text-anchor:start;font-family:monospace;font-style:normal;font-weight:normal" x="1023" y="98">+labez</text>
      <text font-size="12.8" style="fill: #000000; fill-opacity: 1; stroke: none;text-anchor:start;font-family:monospace;font-style:normal;font-weight:normal" x="1023" y="114">+clique</text>
      <text font-size="12.8" style="fill: #000000; fill-opacity: 1; stroke: none;text-anchor:start;font-family:monospace;font-style:normal;font-weight:normal" x="1023" y="130">+source_labez</text>
      <text font-size="12.8" style="fill: #000000; fill-opacity: 1; stroke: none;text-anchor:start;font-family:monospace;font-style:normal;font-weight:normal" x="1023" y="146">+source_clique</text>
      <text font-size="12.8" style="fill: #000000; fill-opacity: 1; stroke: none;text-anchor:start;font-family:monospace;font-style:normal;font-weight:normal" x="1023" y="162">+original: boolean</text>
      <rect style="fill: #ffffff; fill-opacity: 1; stroke-opacity: 1; stroke-width: 2; stroke: #000000" x="1020" y="168" width="160" height="8"/>
    </g>
    <g>
      <line style="fill: none; stroke-opacity: 1; stroke-width: 2; stroke: #000000" x1="1020" y1="78" x2="940" y2="78"/>
      <line style="fill: none; stroke-opacity: 1; stroke-width: 2; stroke: #000000" x1="940" y1="78" x2="940" y2="78"/>
      <line style="fill: none; stroke-opacity: 1; stroke-width: 2; stroke: #000000" x1="940" y1="78" x2="869.736" y2="78"/>
      <polygon style="fill: #000000; fill-opacity: 1; stroke-opacity: 1; stroke-width: 2; stroke: #000000" fill-rule="evenodd" points="862.236,78 872.236,73 869.736,78 872.236,83 "/>
    </g>
    <g>
      <polyline style="fill: none; stroke-opacity: 1; stroke-width: 2; stroke: #000000" points="480,78 450,78 450,78 429.736,78 "/>
      <polygon style="fill: #000000; fill-opacity: 1; stroke-opacity: 1; stroke-width: 2; stroke: #000000" fill-rule="evenodd" points="422.236,78 432.236,73 429.736,78 432.236,83 "/>
    </g>
    <g>
      <polyline style="fill: none; stroke-opacity: 1; stroke-width: 2; stroke: #000000" points="700,78 670,78 670,78 649.736,78 "/>
      <polygon style="fill: #000000; fill-opacity: 1; stroke-opacity: 1; stroke-width: 2; stroke: #000000" fill-rule="evenodd" points="642.236,78 652.236,73 649.736,78 652.236,83 "/>
    </g>
    <g>
      <rect style="fill: #ffffff; fill-opacity: 1; stroke-opacity: 1; stroke-width: 2; stroke: #000000" x="20" y="40" width="160" height="28"/>
      <text font-size="16" style="fill: #000000; fill-opacity: 1; stroke: none;text-anchor:middle;font-family:sans-serif;font-style:normal;font-weight:700" x="100" y="59">books</text>
      <rect style="fill: #ffffff; fill-opacity: 1; stroke-opacity: 1; stroke-width: 2; stroke: #000000" x="20" y="68" width="160" height="68"/>
      <text font-size="12.8" style="fill: #000000; fill-opacity: 1; stroke: none;text-anchor:start;font-family:monospace;font-style:normal;font-weight:normal" x="23" y="82">+bk_id: integer</text>
      <text font-size="12.8" style="fill: #000000; fill-opacity: 1; stroke: none;text-anchor:start;font-family:monospace;font-style:normal;font-weight:normal" x="23" y="98">+siglum: string</text>
      <text font-size="12.8" style="fill: #000000; fill-opacity: 1; stroke: none;text-anchor:start;font-family:monospace;font-style:normal;font-weight:normal" x="23" y="114">+book: string</text>
      <text font-size="12.8" style="fill: #000000; fill-opacity: 1; stroke: none;text-anchor:start;font-family:monospace;font-style:normal;font-weight:normal" x="23" y="130">+irange: intrange</text>
      <rect style="fill: #ffffff; fill-opacity: 1; stroke-opacity: 1; stroke-width: 2; stroke: #000000" x="20" y="136" width="160" height="8"/>
    </g>
    <g>
      <rect style="fill: #e8e8e7; fill-opacity: 1; stroke-opacity: 1; stroke-width: 2; stroke: #000000" x="700" y="500" width="160" height="28"/>
      <text font-size="16" style="fill: #000000; fill-opacity: 1; stroke: none;text-anchor:middle;font-family:sans-serif;font-style:normal;font-weight:700" x="780" y="519">ms_ranges</text>
      <rect style="fill: #e8e8e7; fill-opacity: 1; stroke-opacity: 1; stroke-width: 2; stroke: #000000" x="700" y="528" width="160" height="52"/>
      <text font-size="12.8" style="fill: #000000; fill-opacity: 1; stroke: none;text-anchor:start;font-family:monospace;font-style:normal;font-weight:normal" x="703" y="542">+rg_id</text>
      <text font-size="12.8" style="fill: #000000; fill-opacity: 1; stroke: none;text-anchor:start;font-family:monospace;font-style:normal;font-weight:normal" x="703" y="558">+ms_id</text>
      <text font-size="12.8" style="fill: #000000; fill-opacity: 1; stroke: none;text-anchor:start;font-family:monospace;font-style:normal;font-weight:normal" x="703" y="574">+length</text>
      <rect style="fill: #e8e8e7; fill-opacity: 1; stroke-opacity: 1; stroke-width: 2; stroke: #000000" x="700" y="580" width="160" height="8"/>
    </g>
    <g>
      <rect style="fill: #e8e8e7; fill-opacity: 1; stroke-opacity: 1; stroke-width: 2; stroke: #000000" x="1020" y="500" width="160" height="28"/>
      <text font-size="16" style="fill: #000000; fill-opacity: 1; stroke: none;text-anchor:middle;font-family:sans-serif;font-style:normal;font-weight:700" x="1100" y="519">affinity</text>
      <rect style="fill: #e8e8e7; fill-opacity: 1; stroke-opacity: 1; stroke-width: 2; stroke: #000000" x="1020" y="528" width="160" height="148"/>
      <text font-size="12.8" style="fill: #000000; fill-opacity: 1; stroke: none;text-anchor:start;font-family:monospace;font-style:normal;font-weight:normal" x="1023" y="542">+rg_id</text>
      <text font-size="12.8" style="fill: #000000; fill-opacity: 1; stroke: none;text-anchor:start;font-family:monospace;font-style:normal;font-weight:normal" x="1023" y="558">+ms_id1</text>
      <text font-size="12.8" style="fill: #000000; fill-opacity: 1; stroke: none;text-anchor:start;font-family:monospace;font-style:normal;font-weight:normal" x="1023" y="574">+ms_id2</text>
      <text font-size="12.8" style="fill: #000000; fill-opacity: 1; stroke: none;text-anchor:start;font-family:monospace;font-style:normal;font-weight:normal" x="1023" y="590">+common</text>
      <text font-size="12.8" style="fill: #000000; fill-opacity: 1; stroke: none;text-anchor:start;font-family:monospace;font-style:normal;font-weight:normal" x="1023" y="606">+equal</text>
      <text font-size="12.8" style="fill: #000000; fill-opacity: 1; stroke: none;text-anchor:start;font-family:monospace;font-style:normal;font-weight:normal" x="1023" y="622">+older</text>
      <text font-size="12.8" style="fill: #000000; fill-opacity: 1; stroke: none;text-anchor:start;font-family:monospace;font-style:normal;font-weight:normal" x="1023" y="638">+newer</text>
      <text font-size="12.8" style="fill: #000000; fill-opacity: 1; stroke: none;text-anchor:start;font-family:monospace;font-style:normal;font-weight:normal" x="1023" y="654">+unclear</text>
      <text font-size="12.8" style="fill: #000000; fill-opacity: 1; stroke: none;text-anchor:start;font-family:monospace;font-style:normal;font-weight:normal" x="1023" y="670">+affinity</text>
      <rect style="fill: #e8e8e7; fill-opacity: 1; stroke-opacity: 1; stroke-width: 2; stroke: #000000" x="1020" y="676" width="160" height="8"/>
    </g>
    <g>
      <line style="fill: none; stroke-opacity: 1; stroke-width: 2; stroke: #000000" x1="700" y1="554" x2="674.142" y2="554"/>
      <path style="fill: none; stroke-opacity: 1; stroke-width: 2; stroke: #000000" d="M 674.142,554 A 14.1421,14.1421 0 0 1 660,539.858"/>
      <line style="fill: none; stroke-opacity: 1; stroke-width: 2; stroke: #000000" x1="660" y1="539.858" x2="660" y2="338"/>
      <path style="fill: none; stroke-opacity: 1; stroke-width: 2; stroke: #000000" d="M 660,338 A 20,20 0 0 0 640,318"/>
      <line style="fill: none; stroke-opacity: 1; stroke-width: 2; stroke: #000000" x1="640" y1="318" x2="429.736" y2="318"/>
      <polygon style="fill: #000000; fill-opacity: 1; stroke-opacity: 1; stroke-width: 2; stroke: #000000" fill-rule="evenodd" points="422.236,318 432.236,313 429.736,318 432.236,323 "/>
    </g>
    <g>
      <polyline style="fill: none; stroke-opacity: 1; stroke-width: 2; stroke: #000000" points="1020,538 940,538 940,538 869.736,538 "/>
      <polygon style="fill: #000000; fill-opacity: 1; stroke-opacity: 1; stroke-width: 2; stroke: #000000" fill-rule="evenodd" points="862.236,538 872.236,533 869.736,538 872.236,543 "/>
    </g>
    <g>
      <rect style="fill: #ffffff; fill-opacity: 1; stroke-opacity: 1; stroke-width: 2; stroke: #000000" x="260" y="500" width="160" height="28"/>
      <text font-size="16" style="fill: #000000; fill-opacity: 1; stroke: none;text-anchor:middle;font-family:sans-serif;font-style:normal;font-weight:700" x="340" y="519">ranges</text>
      <rect style="fill: #ffffff; fill-opacity: 1; stroke-opacity: 1; stroke-width: 2; stroke: #000000" x="260" y="528" width="160" height="68"/>
      <text font-size="12.8" style="fill: #000000; fill-opacity: 1; stroke: none;text-anchor:start;font-family:monospace;font-style:normal;font-weight:normal" x="263" y="542">+rg_id</text>
      <text font-size="12.8" style="fill: #000000; fill-opacity: 1; stroke: none;text-anchor:start;font-family:monospace;font-style:normal;font-weight:normal" x="263" y="558">+bk_id</text>
      <text font-size="12.8" style="fill: #000000; fill-opacity: 1; stroke: none;text-anchor:start;font-family:monospace;font-style:normal;font-weight:normal" x="263" y="574">+range</text>
      <text font-size="12.8" style="fill: #000000; fill-opacity: 1; stroke: none;text-anchor:start;font-family:monospace;font-style:normal;font-weight:normal" x="263" y="590">+irange</text>
      <rect style="fill: #ffffff; fill-opacity: 1; stroke-opacity: 1; stroke-width: 2; stroke: #000000" x="260" y="596" width="160" height="8"/>
    </g>
    <g>
      <line style="fill: none; stroke-opacity: 1; stroke-width: 2; stroke: #000000" x1="700" y1="538" x2="560" y2="538"/>
      <line style="fill: none; stroke-opacity: 1; stroke-width: 2; stroke: #000000" x1="560" y1="538" x2="560" y2="538"/>
      <line style="fill: none; stroke-opacity: 1; stroke-width: 2; stroke: #000000" x1="560" y1="538" x2="429.736" y2="538"/>
      <polygon style="fill: #000000; fill-opacity: 1; stroke-opacity: 1; stroke-width: 2; stroke: #000000" fill-rule="evenodd" points="422.236,538 432.236,533 429.736,538 432.236,543 "/>
    </g>
    <g>
      <line style="fill: none; stroke-opacity: 1; stroke-width: 2; stroke: #000000" x1="260" y1="554" x2="234.142" y2="554"/>
      <path style="fill: none; stroke-opacity: 1; stroke-width: 2; stroke: #000000" d="M 234.142,554 A 14.1421,14.1421 0 0 1 220,539.858"/>
      <line style="fill: none; stroke-opacity: 1; stroke-width: 2; stroke: #000000" x1="220" y1="539.858" x2="220" y2="88.6999"/>
      <path style="fill: none; stroke-opacity: 1; stroke-width: 2; stroke: #000000" d="M 220,88.6999 A 10.6999,10.6999 0 0 0 209.3,78"/>
      <line style="fill: none; stroke-opacity: 1; stroke-width: 2; stroke: #000000" x1="209.3" y1="78" x2="189.736" y2="78"/>
      <polygon style="fill: #000000; fill-opacity: 1; stroke-opacity: 1; stroke-width: 2; stroke: #000000" fill-rule="evenodd" points="182.236,78 192.236,73 189.736,78 192.236,83 "/>
    </g>
    <g>
      <polyline style="fill: none; stroke-opacity: 1; stroke-width: 2; stroke: #000000" points="700,94 670,94 670,94 649.736,94 "/>
      <polygon style="fill: #000000; fill-opacity: 1; stroke-opacity: 1; stroke-width: 2; stroke: #000000" fill-rule="evenodd" points="642.236,94 652.236,89 649.736,94 652.236,99 "/>
    </g>
    <g>
      <line style="fill: none; stroke-opacity: 1; stroke-width: 2; stroke: #000000" x1="1020" y1="94" x2="940" y2="94"/>
      <line style="fill: none; stroke-opacity: 1; stroke-width: 2; stroke: #000000" x1="940" y1="94" x2="940" y2="94"/>
      <line style="fill: none; stroke-opacity: 1; stroke-width: 2; stroke: #000000" x1="940" y1="94" x2="869.736" y2="94"/>
      <polygon style="fill: #000000; fill-opacity: 1; stroke-opacity: 1; stroke-width: 2; stroke: #000000" fill-rule="evenodd" points="862.236,94 872.236,89 869.736,94 872.236,99 "/>
    </g>
    <g>
      <line style="fill: none; stroke-opacity: 1; stroke-width: 2; stroke: #000000" x1="1020" y1="110" x2="940" y2="110"/>
      <line style="fill: none; stroke-opacity: 1; stroke-width: 2; stroke: #000000" x1="940" y1="110" x2="940" y2="110"/>
      <line style="fill: none; stroke-opacity: 1; stroke-width: 2; stroke: #000000" x1="940" y1="110" x2="869.736" y2="110"/>
      <polygon style="fill: #000000; fill-opacity: 1; stroke-opacity: 1; stroke-width: 2; stroke: #000000" fill-rule="evenodd" points="862.236,110 872.236,105 869.736,110 872.236,115 "/>
    </g>
    <g>
      <line style="fill: none; stroke-opacity: 1; stroke-width: 2; stroke: #000000" x1="1020" y1="318" x2="720" y2="318"/>
      <line style="fill: none; stroke-opacity: 1; stroke-width: 2; stroke: #000000" x1="720" y1="318" x2="720" y2="318"/>
      <line style="fill: none; stroke-opacity: 1; stroke-width: 2; stroke: #000000" x1="720" y1="318" x2="429.736" y2="318"/>
      <polygon style="fill: #000000; fill-opacity: 1; stroke-opacity: 1; stroke-width: 2; stroke: #000000" fill-rule="evenodd" points="422.236,318 432.236,313 429.736,318 432.236,323 "/>
    </g>
    <g>
      <line style="fill: none; stroke-opacity: 1; stroke-width: 2; stroke: #000000" x1="1020" y1="334" x2="960" y2="334"/>
      <path style="fill: none; stroke-opacity: 1; stroke-width: 2; stroke: #000000" d="M 960,334 A 20,20 0 0 1 940,314"/>
      <line style="fill: none; stroke-opacity: 1; stroke-width: 2; stroke: #000000" x1="940" y1="314" x2="940" y2="98"/>
      <path style="fill: none; stroke-opacity: 1; stroke-width: 2; stroke: #000000" d="M 940,98 A 20,20 0 0 0 920,78"/>
      <line style="fill: none; stroke-opacity: 1; stroke-width: 2; stroke: #000000" x1="920" y1="78" x2="869.736" y2="78"/>
      <polygon style="fill: #000000; fill-opacity: 1; stroke-opacity: 1; stroke-width: 2; stroke: #000000" fill-rule="evenodd" points="862.236,78 872.236,73 869.736,78 872.236,83 "/>
    </g>
    <g>
      <line style="fill: none; stroke-opacity: 1; stroke-width: 2; stroke: #000000" x1="1020" y1="350" x2="940" y2="350"/>
      <path style="fill: none; stroke-opacity: 1; stroke-width: 2; stroke: #000000" d="M 940,350 A 20,20 0 0 1 920,330"/>
      <line style="fill: none; stroke-opacity: 1; stroke-width: 2; stroke: #000000" x1="920" y1="330" x2="920" y2="111.771"/>
      <path style="fill: none; stroke-opacity: 1; stroke-width: 2; stroke: #000000" d="M 920,111.771 A 17.771,17.771 0 0 0 902.229,94"/>
      <line style="fill: none; stroke-opacity: 1; stroke-width: 2; stroke: #000000" x1="902.229" y1="94" x2="869.736" y2="94"/>
      <polygon style="fill: #000000; fill-opacity: 1; stroke-opacity: 1; stroke-width: 2; stroke: #000000" fill-rule="evenodd" points="862.236,94 872.236,89 869.736,94 872.236,99 "/>
    </g>
    <g>
      <polyline style="fill: none; stroke-opacity: 1; stroke-width: 2; stroke: #000000" points="1020,554 940,554 940,554 869.736,554 "/>
      <polygon style="fill: #000000; fill-opacity: 1; stroke-opacity: 1; stroke-width: 2; stroke: #000000" fill-rule="evenodd" points="862.236,554 872.236,549 869.736,554 872.236,559 "/>
    </g>
    <g>
      <line style="fill: none; stroke-opacity: 1; stroke-width: 2; stroke: #000000" x1="1020" y1="570" x2="945.657" y2="570"/>
      <path style="fill: none; stroke-opacity: 1; stroke-width: 2; stroke: #000000" d="M 945.657,570 A 5.65685,5.65685 0 0 1 940,564.343"/>
      <line style="fill: none; stroke-opacity: 1; stroke-width: 2; stroke: #000000" x1="940" y1="564.343" x2="940" y2="557.657"/>
      <path style="fill: none; stroke-opacity: 1; stroke-width: 2; stroke: #000000" d="M 940,557.657 A 3.65685,3.65685 0 0 0 936.343,554"/>
      <line style="fill: none; stroke-opacity: 1; stroke-width: 2; stroke: #000000" x1="936.343" y1="554" x2="869.736" y2="554"/>
      <polygon style="fill: #000000; fill-opacity: 1; stroke-opacity: 1; stroke-width: 2; stroke: #000000" fill-rule="evenodd" points="862.236,554 872.236,549 869.736,554 872.236,559 "/>
    </g>
    <g>
      <line style="fill: none; stroke-opacity: 1; stroke-width: 2; stroke: #000000" x1="260" y1="94" x2="245.657" y2="94"/>
      <path style="fill: none; stroke-opacity: 1; stroke-width: 2; stroke: #000000" d="M 245.657,94 A 5.65685,5.65685 0 0 1 240,88.3431"/>
      <line style="fill: none; stroke-opacity: 1; stroke-width: 2; stroke: #000000" x1="240" y1="88.3431" x2="240" y2="81.6569"/>
      <path style="fill: none; stroke-opacity: 1; stroke-width: 2; stroke: #000000" d="M 240,81.6569 A 3.65685,3.65685 0 0 0 236.343,78"/>
      <line style="fill: none; stroke-opacity: 1; stroke-width: 2; stroke: #000000" x1="236.343" y1="78" x2="189.736" y2="78"/>
      <polygon style="fill: #000000; fill-opacity: 1; stroke-opacity: 1; stroke-width: 2; stroke: #000000" fill-rule="evenodd" points="182.236,78 192.236,73 189.736,78 192.236,83 "/>
    </g>
    <g>
      <line style="fill: none; stroke-opacity: 1; stroke-width: 2; stroke: #000000" x1="1020" y1="126" x2="991.314" y2="126"/>
      <path style="fill: none; stroke-opacity: 1; stroke-width: 2; stroke: #000000" d="M 991.314,126 A 11.3137,11.3137 0 0 1 980,114.686"/>
      <line style="fill: none; stroke-opacity: 1; stroke-width: 2; stroke: #000000" x1="980" y1="114.686" x2="980" y2="101.314"/>
      <path style="fill: none; stroke-opacity: 1; stroke-width: 2; stroke: #000000" d="M 980,101.314 A 7.31371,7.31371 0 0 0 972.686,94"/>
      <line style="fill: none; stroke-opacity: 1; stroke-width: 2; stroke: #000000" x1="972.686" y1="94" x2="869.736" y2="94"/>
      <polygon style="fill: #000000; fill-opacity: 1; stroke-opacity: 1; stroke-width: 2; stroke: #000000" fill-rule="evenodd" points="862.236,94 872.236,89 869.736,94 872.236,99 "/>
    </g>
    <g>
      <line style="fill: none; stroke-opacity: 1; stroke-width: 2; stroke: #000000" x1="1020" y1="142" x2="971.314" y2="142"/>
      <path style="fill: none; stroke-opacity: 1; stroke-width: 2; stroke: #000000" d="M 971.314,142 A 11.3137,11.3137 0 0 1 960,130.686"/>
      <line style="fill: none; stroke-opacity: 1; stroke-width: 2; stroke: #000000" x1="960" y1="130.686" x2="960" y2="117.314"/>
      <path style="fill: none; stroke-opacity: 1; stroke-width: 2; stroke: #000000" d="M 960,117.314 A 7.31371,7.31371 0 0 0 952.686,110"/>
      <line style="fill: none; stroke-opacity: 1; stroke-width: 2; stroke: #000000" x1="952.686" y1="110" x2="869.736" y2="110"/>
      <polygon style="fill: #000000; fill-opacity: 1; stroke-opacity: 1; stroke-width: 2; stroke: #000000" fill-rule="evenodd" points="862.236,110 872.236,105 869.736,110 872.236,115 "/>
    </g>
    <g>
      <line style="fill: none; stroke-opacity: 1; stroke-width: 2; stroke: #000000" x1="1020" y1="366" x2="920" y2="366"/>
      <path style="fill: none; stroke-opacity: 1; stroke-width: 2; stroke: #000000" d="M 920,366 A 20,20 0 0 1 900,346"/>
      <line style="fill: none; stroke-opacity: 1; stroke-width: 2; stroke: #000000" x1="900" y1="346" x2="900" y2="120.7"/>
      <path style="fill: none; stroke-opacity: 1; stroke-width: 2; stroke: #000000" d="M 900,120.7 A 10.6999,10.6999 0 0 0 889.3,110"/>
      <line style="fill: none; stroke-opacity: 1; stroke-width: 2; stroke: #000000" x1="889.3" y1="110" x2="869.736" y2="110"/>
      <polygon style="fill: #000000; fill-opacity: 1; stroke-opacity: 1; stroke-width: 2; stroke: #000000" fill-rule="evenodd" points="862.236,110 872.236,105 869.736,110 872.236,115 "/>
    </g>
  </g>
</svg>
